REM DIRINDEX 1\4,1\2\5,1\2\6,1\3\7\9,1\3\7\10,1\3\8\11,1\3\8\12
REM DIRNAME folder01,folder02,folder03,folder04,folder05,folder06,folder07,folder08,folder09,folder10,folder11,folder12
TITLE ""
FILE "CD-ATrack08.mp3" MP3
  TRACK 01 AUDIO
    TITLE "0:"
    INDEX 01 00:00:00
  TRACK 02 AUDIO
    TITLE "6:cjc051_0366"
    INDEX 01 00:00:19
  TRACK 03 AUDIO
    TITLE "5:cjc051_0367"
    INDEX 01 00:01:36
  TRACK 04 AUDIO
    TITLE "6:cjc051_0368"
    INDEX 01 00:02:42
  TRACK 05 AUDIO
    TITLE "5:cjc051_0369"
    INDEX 01 00:03:33
  TRACK 06 AUDIO
    TITLE "6:cjc051_0370"
    INDEX 01 00:04:33
  TRACK 07 AUDIO
    TITLE "5:cjc051_0371"
    INDEX 01 00:05:20
  TRACK 08 AUDIO
    TITLE "6:cjc051_0372"
    INDEX 01 00:06:20
  TRACK 09 AUDIO
    TITLE "5:cjc051_0373"
    INDEX 01 00:07:05
  TRACK 10 AUDIO
    TITLE "6:cjc051_0374"
    INDEX 01 00:08:07
  TRACK 11 AUDIO
    TITLE "5:cjc051_0375"
    INDEX 01 00:09:12
  TRACK 12 AUDIO
    TITLE "6:cjc051_0376"
    INDEX 01 00:10:33
  TRACK 13 AUDIO
    TITLE "5:cjc051_0377"
    INDEX 01 00:11:50
  TRACK 14 AUDIO
    TITLE "6:cjc051_0378"
    INDEX 01 00:12:61
  TRACK 15 AUDIO
    TITLE "5:cjc051_0379"
    INDEX 01 00:13:51
  TRACK 16 AUDIO
    TITLE "6:cjc051_0380"
    INDEX 01 00:14:56
  TRACK 17 AUDIO
    TITLE "5:cjc051_0381"
    INDEX 01 00:15:42
  TRACK 18 AUDIO
    TITLE "6:cjc051_0382"
    INDEX 01 00:16:49
  TRACK 19 AUDIO
    TITLE "5:cjc051_0383"
    INDEX 01 00:17:39
  TRACK 20 AUDIO
    TITLE "6:cjc051_0384"
    INDEX 01 00:18:41
  TRACK 21 AUDIO
    TITLE "5:cjc051_0385"
    INDEX 01 00:19:50
  TRACK 22 AUDIO
    TITLE "6:cjc051_0386"
    INDEX 01 00:20:47
  TRACK 23 AUDIO
    TITLE "5:cjc051_0387"
    INDEX 01 00:21:51
  TRACK 24 AUDIO
    TITLE "6:cjc051_0388"
    INDEX 01 00:22:52
  TRACK 25 AUDIO
    TITLE "5:cjc051_0389"
    INDEX 01 00:24:06
  TRACK 26 AUDIO
    TITLE "6:cjc051_0390"
    INDEX 01 00:25:13
  TRACK 27 AUDIO
    TITLE "5:cjc051_0391"
    INDEX 01 00:26:01
  TRACK 28 AUDIO
    TITLE "6:cjc051_0392"
    INDEX 01 00:27:04
  TRACK 29 AUDIO
    TITLE "5:cjc051_0393"
    INDEX 01 00:28:06
  TRACK 30 AUDIO
    TITLE "6:cjc051_0394"
    INDEX 01 00:29:09
  TRACK 31 AUDIO
    TITLE "5:cjc051_0395"
    INDEX 01 00:30:26
  TRACK 32 AUDIO
    TITLE "6:cjc051_0396"
    INDEX 01 00:31:31
  TRACK 33 AUDIO
    TITLE "5:cjc051_0397"
    INDEX 01 00:32:25
  TRACK 34 AUDIO
    TITLE "6:cjc051_0398"
    INDEX 01 00:33:17
  TRACK 35 AUDIO
    TITLE "5:cjc051_0399"
    INDEX 01 00:34:08
  TRACK 36 AUDIO
    TITLE "6:cjc051_0400"
    INDEX 01 00:35:19
  TRACK 37 AUDIO
    TITLE "5:cjc051_0401"
    INDEX 01 00:36:07
  TRACK 38 AUDIO
    TITLE "6:cjc051_0402"
    INDEX 01 00:37:10
  TRACK 39 AUDIO
    TITLE "5:cjc051_0403"
    INDEX 01 00:38:10
  TRACK 40 AUDIO
    TITLE "6:cjc051_0404"
    INDEX 01 00:39:23
  TRACK 41 AUDIO
    TITLE "5:cjc051_0405"
    INDEX 01 00:40:24
  TRACK 42 AUDIO
    TITLE "6:cjc051_0406"
    INDEX 01 00:41:36
  TRACK 43 AUDIO
    TITLE "5:cjc051_0407"
    INDEX 01 00:42:29
  TRACK 44 AUDIO
    TITLE "6:cjc051_0408"
    INDEX 01 00:43:33
  TRACK 45 AUDIO
    TITLE "5:cjc051_0409"
    INDEX 01 00:44:28
  TRACK 46 AUDIO
    TITLE "6:cjc051_0410"
    INDEX 01 00:45:26
  TRACK 47 AUDIO
    TITLE "5:cjc051_0411"
    INDEX 01 00:46:19
  TRACK 48 AUDIO
    TITLE "6:cjc051_0412"
    INDEX 01 00:47:23
  TRACK 49 AUDIO
    TITLE "5:cjc051_0413"
    INDEX 01 00:48:08
  TRACK 50 AUDIO
    TITLE "6:cjc051_0414"
    INDEX 01 00:49:12
  TRACK 51 AUDIO
    TITLE "5:cjc051_0415"
    INDEX 01 00:50:21
  TRACK 52 AUDIO
    TITLE "6:cjc051_0416"
    INDEX 01 00:51:28
  TRACK 53 AUDIO
    TITLE "5:cjc051_0417"
    INDEX 01 00:52:32
  TRACK 54 AUDIO
    TITLE "6:cjc051_0418"
    INDEX 01 00:53:35
  TRACK 55 AUDIO
    TITLE "5:cjc051_0419"
    INDEX 01 00:54:19
  TRACK 56 AUDIO
    TITLE "6:cjc051_0420"
    INDEX 01 00:55:22
  TRACK 57 AUDIO
    TITLE "5:cjc051_0421"
    INDEX 01 00:56:06
  TRACK 58 AUDIO
    TITLE "6:cjc051_0422"
    INDEX 01 00:57:05
  TRACK 59 AUDIO
    TITLE "5:cjc051_0423"
    INDEX 01 00:58:07
  TRACK 60 AUDIO
    TITLE "6:cjc051_0424"
    INDEX 01 00:59:14
  TRACK 61 AUDIO
    TITLE "5:cjc051_0425"
    INDEX 01 01:00:27
  TRACK 62 AUDIO
    TITLE "6:cjc051_0426"
    INDEX 01 01:01:40
  TRACK 63 AUDIO
    TITLE "5:cjc051_0427"
    INDEX 01 01:02:34
  TRACK 64 AUDIO
    TITLE "6:cjc051_0428"
    INDEX 01 01:03:31
  TRACK 65 AUDIO
    TITLE "5:cjc051_0429"
    INDEX 01 01:04:54
  TRACK 66 AUDIO
    TITLE "0:"
    INDEX 01 01:05:66
